<?xml version="1.0" standalone="no"?>
<!DOCTYPE svg PUBLIC "-//W3C//DTD SVG 20010904//EN"
 "http://www.w3.org/TR/2001/REC-SVG-20010904/DTD/svg10.dtd">
<svg version="1.0" xmlns="http://www.w3.org/2000/svg"
 width="256.000000pt" height="256.000000pt" viewBox="0 0 256.000000 256.000000"
 preserveAspectRatio="xMidYMid meet">
<metadata>
Created by potrace 1.11, written by Peter Selinger 2001-2013
</metadata>
<g transform="translate(0.000000,256.000000) scale(0.100000,-0.100000)"
fill="#000000" stroke="none">
<path d="M534 2402 c-94 -12 -201 -53 -220 -83 -3 -5 -10 -6 -16 -3 -7 4 -8 2
-4 -4 4 -7 -3 -17 -18 -23 -14 -7 -23 -16 -20 -20 3 -5 1 -9 -4 -9 -5 0 -17
-16 -28 -35 -10 -19 -22 -35 -25 -35 -4 0 -10 -16 -13 -35 -4 -20 -10 -34 -14
-31 -9 5 -12 -37 -14 -196 -1 -80 -5 -125 -11 -121 -6 4 -7 1 -2 -8 5 -7 10
-37 12 -67 2 -39 -1 -51 -10 -46 -8 5 -7 2 2 -9 11 -14 11 -17 0 -17 -9 0 -10
-3 -4 -8 14 -9 15 -333 2 -325 -6 4 -7 1 -2 -8 5 -7 10 -37 12 -67 2 -39 -1
-51 -10 -46 -8 5 -7 2 2 -9 11 -14 11 -17 0 -17 -9 0 -10 -3 -4 -8 14 -9 15
-333 2 -325 -6 4 -7 1 -2 -8 5 -7 10 -37 12 -67 2 -39 -1 -51 -10 -46 -8 5 -7
2 2 -9 11 -14 11 -17 0 -17 -10 0 -10 -3 -3 -8 7 -4 10 -34 9 -75 -1 -37 2
-70 7 -73 4 -3 4 -13 -1 -22 -5 -9 -5 -26 0 -39 5 -15 5 -23 -2 -23 -6 0 -3
-7 5 -16 9 -8 14 -20 11 -25 -4 -5 -1 -9 4 -9 6 0 11 -8 11 -17 0 -10 7 -27
15 -37 8 -10 12 -22 10 -26 -3 -4 3 -14 13 -21 16 -13 16 -12 2 6 -14 20 -14
20 7 2 12 -11 19 -25 17 -32 -3 -7 0 -16 7 -21 8 -4 10 -3 5 4 -5 8 -2 10 9 6
9 -4 14 -9 11 -11 -3 -3 2 -12 10 -20 8 -8 11 -19 8 -25 -4 -7 -2 -8 5 -4 6 4
9 13 5 19 -3 7 1 4 9 -5 8 -10 22 -18 31 -18 14 0 20 -11 18 -31 -1 -4 12 -6
28 -5 19 1 30 -3 30 -11 0 -7 5 -13 11 -13 5 0 7 5 4 10 -11 17 7 11 21 -7 13
-17 14 -17 7 1 -5 15 -3 17 8 10 8 -5 30 -9 49 -9 19 0 41 -4 49 -9 8 -6 12
-5 8 0 -8 14 80 9 98 -6 13 -11 15 -10 10 2 -8 21 147 20 157 -2 6 -13 7 -13
7 0 1 16 51 25 51 9 0 -5 10 -5 23 -1 38 14 213 8 231 -7 14 -12 16 -12 11 1
-8 21 147 20 157 -2 6 -13 7 -13 7 0 1 16 51 25 51 9 0 -5 10 -5 23 -1 38 14
213 8 231 -7 14 -12 16 -12 11 1 -8 21 147 20 157 -2 6 -13 7 -13 7 0 1 16 51
24 51 8 0 -5 5 -6 10 -3 18 11 110 13 110 2 0 -5 -8 -6 -17 -2 -15 5 -16 4 -5
-7 11 -11 15 -10 25 2 7 8 24 16 39 17 21 2 26 -2 22 -15 -4 -13 -1 -12 13 4
10 12 26 20 36 19 9 -2 17 1 17 6 0 6 5 7 10 4 6 -4 8 -11 5 -16 -4 -5 -1 -9
6 -9 6 0 9 8 6 20 -6 24 -3 25 19 3 16 -16 16 -16 10 5 -6 18 -4 21 10 15 11
-4 15 -3 11 4 -4 6 0 14 9 17 10 4 13 2 8 -7 -6 -9 -5 -9 8 0 8 7 18 10 22 6
4 -4 4 1 0 12 -7 18 -6 19 12 5 10 -8 16 -11 12 -6 -11 13 12 48 27 43 9 -4
11 1 8 14 -5 17 5 24 30 20 4 0 6 2 6 6 -4 22 2 33 14 27 7 -5 6 0 -3 11 -14
17 -13 18 4 12 13 -5 17 -3 13 7 -3 7 1 23 8 34 8 10 12 22 9 25 -3 2 1 20 9
38 7 19 12 49 11 66 -1 22 2 31 10 26 8 -5 8 -3 0 8 -16 19 -18 122 -2 113 7
-5 8 -3 2 7 -13 20 -15 161 -2 153 6 -4 6 1 -1 14 -15 28 -14 55 2 46 8 -5 8
-2 -2 9 -11 14 -11 17 0 17 9 0 10 3 4 8 -16 11 -20 76 -4 67 9 -6 10 -4 3 6
-13 20 -15 161 -2 153 6 -4 6 1 -1 14 -15 28 -14 55 2 46 8 -5 8 -2 -2 9 -11
14 -11 17 0 17 9 0 10 3 4 8 -16 11 -20 76 -4 67 9 -6 10 -4 3 6 -13 20 -15
161 -2 153 6 -4 6 1 -1 14 -15 28 -14 55 2 46 8 -5 8 -2 -2 9 -11 14 -11 17 0
17 9 0 10 3 4 8 -16 11 -20 76 -4 67 9 -6 10 -4 3 6 -13 20 -15 161 -2 153 6
-4 6 1 -1 14 -15 28 -14 55 2 46 8 -5 8 -2 -2 9 -11 14 -11 17 0 17 9 0 10 3
4 8 -15 11 -20 76 -5 67 9 -6 9 -2 1 13 -14 27 -14 35 1 26 8 -5 8 -3 2 7 -5
8 -9 23 -9 34 0 11 -4 26 -9 34 -5 8 -3 16 5 22 8 5 9 9 3 9 -11 0 -41 78 -36
93 1 5 -2 6 -8 2 -5 -3 -10 -1 -10 4 0 17 -73 98 -122 136 -31 24 -97 50 -158
61 -33 5 -1494 12 -1536 6z"/>
<path d="M540 146 c0 -2 8 -10 18 -17 15 -13 16 -12 3 4 -13 16 -21 21 -21 13z"/>
<path d="M756 138 c3 -5 10 -6 15 -3 13 9 11 12 -6 12 -8 0 -12 -4 -9 -9z"/>
<path d="M1006 138 c3 -4 9 -8 15 -8 5 0 9 4 9 8 0 5 -7 9 -15 9 -8 0 -12 -4
-9 -9z"/>
<path d="M1064 143 c4 -4 16 -8 28 -10 28 -4 18 6 -12 12 -12 2 -20 1 -16 -2z"/>
<path d="M1236 138 c3 -5 10 -6 15 -3 13 9 11 12 -6 12 -8 0 -12 -4 -9 -9z"/>
<path d="M1486 138 c3 -4 9 -8 15 -8 5 0 9 4 9 8 0 5 -7 9 -15 9 -8 0 -12 -4
-9 -9z"/>
<path d="M1544 143 c4 -4 16 -8 28 -10 28 -4 18 6 -12 12 -12 2 -20 1 -16 -2z"/>
<path d="M1716 138 c3 -5 10 -6 15 -3 13 9 11 12 -6 12 -8 0 -12 -4 -9 -9z"/>
</g>
</svg>
